<svg id="Layer_1" data-name="Layer 1" xmlns="http://www.w3.org/2000/svg" viewBox="0 0 1262.96 412.46"><defs><style>.cls-1{fill:#63c;}.cls-2{fill:#fefefe;}.cls-3{fill:#fdfdfd;}.cls-4{fill:#fefdfb;}</style></defs><path class="cls-1" d="M385.63,372.53V306.72c0-1.51,0-3,0-4.54.08-2,.31-3.93,2.74-4.32s3.41,1.28,4.22,3.06q5.26,11.64,10.46,23.3c16.09,35.92,32.89,71.54,48,107.85,10.53,25.28,18.76,51.51,28,77.32,2.36,6.62,2.3,6.64,8.24,2.67,11.17-7.46,22.42-14.81,33.48-22.43,3.62-2.49,6.55-2.71,10.25-.08,12,8.53,24.25,16.8,36.43,25.13,1.94,1.32,4.06,2.59,3.28,5.3s-3.19,2.82-5.58,2.84c-6.06,0-12.12.36-18.17.18-3.68-.1-4.58,1.34-4.18,4.73,2.1,17.44,4.09,34.9,6.1,52.36,1.26,10.89,2.39,21.8,3.8,32.66.55,4.23-2.45,5.64-5,7.38Q514,642.74,480.16,665.2a15.15,15.15,0,0,0-6.39,8.22c-3.52,10.39-7.32,20.68-11,31-2.57,7.16-4.54,7.59-9.49,2.09-3.17-3.51-6.56-6.87-9.4-10.64-3.12-4.15-7-5.61-12.09-6C396.91,687,362.08,684,327.23,681c-7.35-.62-14.72-1.06-22.07-1.56-2.73-.18-5.74-.44-6.37-3.58s2.41-3.94,4.53-5q60.36-30.95,120.78-61.76c4.72-2.39,5.48-3.85,1.7-8.1-16.49-18.51-32.58-37.39-48.95-56a24.41,24.41,0,0,1-5.77-11.41q-21.79-101.17-43.79-202.29a21.34,21.34,0,0,1-.37-2.24c-.23-2.22-1.06-4.77,1.66-6,2.26-1,3.86.58,5.43,2.06,5.65,5.33,11.36,10.59,17.05,15.87q15.82,14.67,31.66,29.33C383.38,370.9,384.14,371.39,385.63,372.53Z" transform="translate(-298.71 -297.81)"/><path class="cls-2" d="M337,337.63l31.46,29.23c24.1,22.41,48.13,44.88,72.35,67.15,3.53,3.25,4.13,5.29,1,9.48-20.08,26.77-39.81,53.82-59.66,80.77-1.11,1.49-2.32,2.91-4.41,5.53L335.91,338.45Z" transform="translate(-298.71 -297.81)"/><path class="cls-2" d="M317,672.09c5.53-2.9,11-5.84,16.5-8.65q50.33-25.66,100.65-51.3a10.4,10.4,0,0,1,4.77-1.56c17.59,0,35.17,0,52.38,0-.6.91-2.83,1.52-4.68,2.51Q429,644.26,371.27,675.33c-2.2,1.18-4.32,2.11-7,1.88-14.5-1.22-29-2.3-43.52-3.46C319.52,673.65,318.12,673.78,317,672.09Z" transform="translate(-298.71 -297.81)"/><path class="cls-2" d="M545.26,610c-10.94-2.69-21-5.24-31.12-7.61-2.3-.54-2.85-2.1-3.5-3.93C503,576.71,495.24,555,487,531.89l28.71,22.64q11.13,8.81,22.26,17.6c1.45,1.16,3.3,2.07,3.54,4.21C542.77,587.19,544,598.06,545.26,610Z" transform="translate(-298.71 -297.81)"/><path class="cls-3" d="M556.53,515.84c-21.62.51-41.79,1.7-62.49.24,8.33-5.61,16.95-10.86,24.91-17,5.22-4,8.94-3.93,14,.22C540,505,547.76,509.77,556.53,515.84Z" transform="translate(-298.71 -297.81)"/><path class="cls-4" d="M457.13,699.49c-3.7-4-9.35-7.48-9.59-11.27-.23-3.59,6.82-5.35,10.49-8.18,2.07-1.6,4.35-2.94,7.72-5.19C462.65,683.7,460,691.37,457.13,699.49Z" transform="translate(-298.71 -297.81)"/><path class="cls-1" d="M658,614.67q-21.65-21.85-21.64-57.21T658,500.25q21.63-21.86,54.85-21.85,28.92,0,49.17,16.07T786.51,538H753.09q-3.44-14.13-14.14-22t-26.14-7.82q-20.58,0-32,13.28t-11.46,36q0,22.71,11.46,36t32,13.29q15.42,0,26.14-7.82t14.14-22h33.42q-4.29,27.42-24.53,43.49t-49.17,16.07Q679.59,636.52,658,614.67Z" transform="translate(-298.71 -297.81)"/><path class="cls-1" d="M902.42,619.27q-16.29,17-42.64,17t-42.63-17q-16.29-17-16.29-41.67t16.29-41.67q16.27-17,42.63-17t42.64,17q16.27,17,16.28,41.67T902.42,619.27Zm-63.1-65q-8,8.57-8,23.35t8,23.35q8,8.58,20.46,8.57T880.25,601q8-8.57,8-23.35t-8-23.35q-8-8.57-20.47-8.57T839.32,554.25Z" transform="translate(-298.71 -297.81)"/><path class="cls-1" d="M967.55,521.46v13.72q8.79-16.29,33.43-16.29,19.92,0,30.64,12.11t10.71,32.67v70.06h-30.42V567.1q0-22.07-19.07-22.07-10.94,0-16.93,6.54t-6,17.89v64.27H939.49V521.46Z" transform="translate(-298.71 -297.81)"/><path class="cls-1" d="M1109,636.31q-45.86,0-48.63-39h30.85a14.87,14.87,0,0,0,5,10.39q4.61,4.18,13.61,4.18,8.57,0,13.07-2.79t4.5-7.49q0-5.15-6.43-7.61a80.47,80.47,0,0,0-15.54-4,173.11,173.11,0,0,1-18.31-4.07,31.3,31.3,0,0,1-15.64-10.07Q1065,568.39,1065,556q0-15.63,12.42-26.35T1110,518.89q22.92,0,34.07,11.57t12,26.36h-29.36a13.69,13.69,0,0,0-4.82-9.64q-4.39-3.87-12.1-3.86-7.29,0-11.36,3.11a9.48,9.48,0,0,0-4.07,7.82q0,5.13,6.43,7.5a80.68,80.68,0,0,0,15.53,3.74,150.15,150.15,0,0,1,18.21,4,30.83,30.83,0,0,1,15.54,10.28q6.42,7.71,6.43,20.57,0,15.65-12.75,25.82T1109,636.31Z" transform="translate(-298.71 -297.81)"/><path class="cls-1" d="M1229.16,606.74v26.35a62.09,62.09,0,0,1-14.36,1.29q-34.5,0-34.49-34.28V545.46h-15.22v-24h15.22V493.61h30.42v27.85h18.64v24h-18.64v51.42q0,10.93,11.35,10.93Z" transform="translate(-298.71 -297.81)"/><path class="cls-1" d="M1311.43,520.61V549.1a31.31,31.31,0,0,0-6-.64q-13.5,0-20.25,7.07t-6.75,22.28v55.92H1248V521.46h28.07V536q9.64-15.63,31.71-15.64Z" transform="translate(-298.71 -297.81)"/><path class="cls-1" d="M1398.41,585.31V521.46h30.43V633.73h-28.07V620q-8.79,16.29-33,16.29-19.72,0-30.32-12.11t-10.61-32.67V521.46h30.43V588.1q0,22.06,18.64,22.07,11.13,0,16.82-6.43T1398.41,585.31Z" transform="translate(-298.71 -297.81)"/><path class="cls-1" d="M1561.25,586.38h-81.42q1.5,11.58,8.57,17.68t18.64,6.11a27.86,27.86,0,0,0,13.18-3.11,18.12,18.12,0,0,0,8.46-9.11h30.64a51,51,0,0,1-19.39,27.75q-14.46,10.6-33.75,10.61-24.86,0-40.71-16.5t-15.85-42.42q0-25.08,15.85-41.78t40.5-16.72q24.63,0,40.17,16.61t15.53,41.89Zm-55.5-43.06q-10.27,0-16.92,5.68t-8.57,15.53h51a25.69,25.69,0,0,0-8.36-15.43Q1516.26,543.33,1505.75,543.32Z" transform="translate(-298.71 -297.81)"/></svg>